<?xml version="1.0" encoding="UTF-8"?>
<svg width="200px" height="239px" viewBox="0 0 200 239" version="1.1" xmlns="http://www.w3.org/2000/svg" xmlns:xlink="http://www.w3.org/1999/xlink">
    <title>CodeIgniter Logo</title>
    <desc>Prepared for CodeIgniter Wizard</desc>
    <defs></defs>
    <g id="canvas" stroke="none" stroke-width="1" fill="none" fill-rule="evenodd">
        <path d="M64.54,238.81 C50.22,232.62 36.82,216.888 36.788,200.791 C36.749,183.241 47.871,168.341 61.704,158.549 C60.041,164.832 59.134,170.579 63.254,176.199 C67.084,181.424 73.792,183.963 80.126,182.585 C94.926,179.345 95.605,163.075 86.831,153.596 C78.156,144.209 69.764,133.606 73.066,119.993 C74.719,113.169 78.909,106.777 84.217,102.208 C80.137,112.93 91.731,123.504 99.37,128.771 C112.621,137.909 127.16,144.815 139.344,155.527 C152.16,166.785 161.624,182.007 159.713,199.662 C157.642,218.798 142.436,232.107 125.38,238.826 C161.422,230.871 198.663,202.898 199.426,162.926 C200.058,130.041 177.499,104.733 149.554,90.244 L148.094,89.447 C148.861,91.308 149.112,92.891 149.083,94.308 C149.333,93.263 149.503,92.189 149.551,91.081 C149.544207,92.3973033 149.372195,93.7075474 149.039,94.981 L149.083,94.308 C148.668048,96.0538883 147.969072,97.7197409 147.014,99.239 L147.424,98.798 C141.849,108.045 126.756,110.053 119.3,100.478 C107.314,85.076 119.551,68.47 121.263,52.16 C123.406,31.719 110.587,11.875 94.693,0 C103.447,14.161 91.914,32.896 82.687,43.37 C73.74,53.523 62.859,62 52.982,71.225 C42.372,81.133 32.172,91.57 23.451,103.199 C6.009,126.475 -4.669,155.749 3.178,184.787 C11.02,213.805 36.156,232.277 64.541,238.809 L64.54,238.81 Z" id="Shape" fill="#EE4323" fill-rule="nonzero"></path>
    </g>
</svg>